<svg xmlns="http://www.w3.org/2000/svg" viewBox="0 0 500 500"><g id="freepik--background-simple--inject-2"><path d="M316.59,31.58c-27.94-13-58.65-18.9-90.11-14-38,6-71.91,27.91-95.74,57.73a153.21,153.21,0,0,0-22.64,38c-20.52,51-25.48,112.51-63,190.35s-4.95,165.58,82.79,186.1,145.77-59.44,215.82-58.73,140.11-57.32,140.82-141.52C485.36,193,424,103.11,346.82,49.31A201.64,201.64,0,0,0,316.59,31.58Z" style="fill:#2B49D0"></path><path d="M316.59,31.58c-27.94-13-58.65-18.9-90.11-14-38,6-71.91,27.91-95.74,57.73a153.21,153.21,0,0,0-22.64,38c-20.52,51-25.48,112.51-63,190.35s-4.95,165.58,82.79,186.1,145.77-59.44,215.82-58.73,140.11-57.32,140.82-141.52C485.36,193,424,103.11,346.82,49.31A201.64,201.64,0,0,0,316.59,31.58Z" style="fill:#fff;opacity:0.7000000000000001"></path></g><g id="freepik--Plants--inject-2"><g style="opacity:0.2"><path d="M122.85,428.35c-.58-3.11-4.7-8.9-4.7-8.9s-3,3.87-3.15,4.14c-1.82,3.12-3.5,10.22-.8,13.23a4.79,4.79,0,0,0,7.12-.19C123.24,434.52,123.35,431,122.85,428.35Z"></path><path d="M83.81,368.07c0-.08-4.63,1.58-4.91,1.71-3.23,1.6-8.55,6.59-8,10.59a4.77,4.77,0,0,0,6,3.77c2.77-.7,4.8-3.57,5.85-6.06C84.06,375.17,83.81,368.07,83.81,368.07Z"></path><path d="M50.63,365c1.9,3.56,9.14,4.42,12.7,3.79.3-.06,5-1.47,5-1.53l0-.08c1.14.15,2.37.29,3.71.42,2.48.21,5.29.44,8.36.47a85.39,85.39,0,0,0,9.91-.36,61.08,61.08,0,0,0,10.92-2l.13,0c-1,.65-3.7,2.56-3.9,2.73-2.7,2.39-6.51,8.61-4.89,12.31a4.79,4.79,0,0,0,6.83,2c2.48-1.4,3.68-4.71,4-7.38.4-3-1.51-9.33-1.67-9.83a85.8,85.8,0,0,0,10.59-4c2-.9,4-1.87,6-2.86-.83.59-1.58,1.12-1.68,1.21-2.7,2.39-6.51,8.61-4.89,12.31a4.79,4.79,0,0,0,6.83,2c2.48-1.4,3.68-4.71,4-7.38s-1.16-8.13-1.59-9.56l2.28-1.16c3.63-1.88,7.24-3.77,10.85-5.51,1.27-.62,2.54-1.18,3.81-1.74-.75.52-1.37,1-1.46,1-2.7,2.4-6.51,8.62-4.89,12.32a4.79,4.79,0,0,0,6.83,2c2.48-1.41,3.68-4.71,4-7.39s-1-7.6-1.51-9.29c1.32-.54,2.64-1.09,3.94-1.55.9-.29,1.74-.64,2.66-.89l2.68-.78c1.72-.44,3.5-.9,5.19-1.28,1.17-.27,2.3-.51,3.43-.76-1.27.6-3.74,1.82-3.93,2a18.52,18.52,0,0,0-6.08,7.14,5.24,5.24,0,0,0-.84.65,4.79,4.79,0,0,0-.07,7.12c3.06,2.65,10.12.85,13.21-1,.18-.11,2-1.53,3.18-2.44-.6.64-1.18,1.25-1.78,1.92-1.2,1.31-2.36,2.65-3.61,4.09L157.14,364c-.6.72-1.15,1.55-1.73,2.32-1.32,1.83-2.56,3.74-3.77,5.7-1.15-1.05-5.29-4.71-7.86-5.56s-6.06-1.22-8.41.4a4.79,4.79,0,0,0-1.15,7c2.62,3.08,9.88,2.37,13.22,1,.21-.09,2.49-1.35,3.73-2.07-.72,1.18-1.44,2.36-2.13,3.58-2,3.52-3.88,7.14-5.8,10.75-.58,1.11-1.18,2.2-1.77,3.3-.4-.38-5.23-4.84-8.11-5.79-2.56-.85-6.06-1.22-8.41.4a4.79,4.79,0,0,0-1.15,7c2.62,3.08,9.88,2.37,13.22,1,.25-.11,3.53-1.93,4.34-2.43-1.3,2.42-2.63,4.81-4,7.12a83.15,83.15,0,0,1-6.21,9c-.19-.18-5.2-4.86-8.15-5.84-2.56-.84-6.06-1.21-8.41.41a4.78,4.78,0,0,0-1.15,7c2.62,3.08,9.88,2.37,13.21,1,.22-.09,2.72-1.47,3.9-2.16l.15.18a62.7,62.7,0,0,1-7.78,7.77c-1.54,1.31-3.08,2.48-4.6,3.59-.85-1-4.76-5.34-7.31-6.52s-5.89-1.87-8.41-.52a4.79,4.79,0,0,0-1.91,6.86c2.26,3.35,9.56,3.44,13,2.43.18-.05,2-.82,3.38-1.4-.69.49-1.4,1-2.08,1.46-2.53,1.71-5,3.13-7.12,4.36-1.23.69-2.36,1.29-3.42,1.84-1.32-.51-6.68-2.53-9.44-2.39s-6.09,1.05-7.7,3.41a4.79,4.79,0,0,0,1.46,7c3.56,1.93,10.07-1.35,12.68-3.85.23-.21,3.38-4,3.31-4l-.08,0c1-.51,2.13-1.07,3.32-1.7,2.19-1.19,4.65-2.55,7.23-4.22a85.7,85.7,0,0,0,8.08-5.76,63.14,63.14,0,0,0,8-7.67,1,1,0,0,0,.08-.11c-.47,1.09-1.68,4.18-1.75,4.42-.93,3.49-.68,10.78,2.72,13a4.8,4.8,0,0,0,6.82-2.07c1.29-2.54.47-6-.71-8.39-1.33-2.74-6.41-6.94-6.81-7.28a84.71,84.71,0,0,0,6.64-9.15c1.18-1.85,2.31-3.76,3.42-5.68-.38.95-.71,1.81-.74,1.93-.93,3.49-.68,10.78,2.71,13a4.79,4.79,0,0,0,6.82-2.06c1.3-2.55.47-6-.7-8.39s-5.46-6.14-6.6-7.1c.42-.74.85-1.48,1.26-2.22,2-3.57,4-7.14,6-10.58.72-1.22,1.47-2.39,2.22-3.56-.34.85-.61,1.56-.64,1.68-.93,3.49-.68,10.78,2.72,13a4.78,4.78,0,0,0,6.81-2.07c1.3-2.54.48-6-.7-8.38s-5-5.78-6.39-6.93c.8-1.17,1.6-2.36,2.44-3.46.58-.74,1.09-1.5,1.72-2.21l1.81-2.13c1.19-1.31,2.42-2.68,3.62-3.93.83-.88,1.63-1.7,2.44-2.53-.73,1.2-2.11,3.58-2.2,3.79-1.45,3.31-2.31,10.56.72,13.24a4.79,4.79,0,0,0,7.05-1c1.67-2.32,1.37-5.82.57-8.4-.87-2.84-5.06-7.59-5.59-8.19,1.34-1.36,2.66-2.68,3.93-3.9,4.33-4.21,8.1-7.56,10.79-9.87l-1.54-2.27-.18.15c-2.67,2.41-6.44,5.9-10.76,10.29-1.37,1.38-2.8,2.88-4.26,4.44a55.32,55.32,0,0,0-5.26-3.11c.69-3-.12-8.84-.23-9.59,1.88-.4,3.7-.77,5.43-1.09C171,340,176,339.3,179.47,338.85l-1.69-2.49c-3.44.54-8,1.31-13.23,2.43-1.9.39-3.93.86-6,1.35-.29-.72-2.74-6.58-4.91-8.61-2-1.84-5-3.64-7.81-3.16a4.8,4.8,0,0,0-4,5.91c1.09,3.89,8,6.29,11.59,6.43.21,0,2.53-.16,4-.29l-2.54.62c-1.72.43-3.43.91-5.27,1.42l-2.66.84c-.9.27-1.81.66-2.73,1-2.1.8-4.19,1.71-6.28,2.68-.38-1.51-1.81-6.85-3.49-9s-4.38-4.36-7.23-4.3a4.78,4.78,0,0,0-4.84,5.23c.48,4,6.93,7.42,10.48,8.11.22,0,2.82.25,4.25.34-1.25.59-2.51,1.17-3.75,1.81-3.6,1.84-7.18,3.81-10.77,5.77-1.09.6-2.2,1.18-3.3,1.77-.12-.54-1.69-6.92-3.56-9.3-1.67-2.12-4.38-4.36-7.24-4.31a4.8,4.8,0,0,0-4.84,5.23c.49,4,6.94,7.43,10.48,8.12.27.05,4,.34,5,.37-2.42,1.29-4.84,2.56-7.29,3.72a86.18,86.18,0,0,1-10.14,4.07c-.06-.25-1.66-6.92-3.58-9.36-1.67-2.12-4.39-4.36-7.24-4.31A4.79,4.79,0,0,0,86,356.17c.49,4,6.93,7.43,10.48,8.12.23,0,3.08.27,4.44.34l0,.23a62,62,0,0,1-10.78,2.19c-2,.25-3.93.38-5.82.46-.17-1.28-1-7.08-2.5-9.47S78,353.23,75.12,353a4.78,4.78,0,0,0-5.38,4.66c0,4.05,6.08,8.15,9.52,9.22.19.06,2.16.44,3.6.7-.85,0-1.72.06-2.54.07-3,0-5.86-.13-8.34-.29-1.41-.11-2.68-.23-3.87-.35-.82-1.16-4.18-5.8-6.55-7.21s-5.66-2.49-8.31-1.41A4.8,4.8,0,0,0,50.63,365Z"></path></g><g style="opacity:0.2"><path d="M360.53,82.53c1.88,2.55,8.1,6,8.11,6s1-4.79,1-5.1c.28-3.6-1.3-10.73-5-12.26a4.78,4.78,0,0,0-6.32,3.27C357.49,77.15,358.93,80.36,360.53,82.53Z"></path><path d="M421.92,119.81c0,.06,3.48-3.44,3.67-3.69,2.22-2.85,4.84-9.65,2.56-13a4.78,4.78,0,0,0-7.08-.76c-2.19,1.83-2.76,5.3-2.62,8C418.61,113.52,421.92,119.8,421.92,119.81Z"></path><path d="M453.14,108.13c-3.27-2.38-10.16,0-13.09,2.12-.25.18-3.87,3.5-3.81,3.54l.08,0c-1.09.37-2.26.78-3.52,1.25-2.33.88-4.95,1.91-7.73,3.21a84.56,84.56,0,0,0-8.77,4.64,62.39,62.39,0,0,0-9,6.52l-.09.1c.61-1,2.22-3.91,2.32-4.15,1.39-3.33,2.11-10.59-1-13.22a4.78,4.78,0,0,0-7,1.14c-1.63,2.34-1.27,5.84-.42,8.41.95,2.88,5.42,7.74,5.77,8.12a86.79,86.79,0,0,0-7.8,8.18c-1.41,1.68-2.79,3.42-4.14,5.18.5-.9.94-1.7,1-1.82,1.39-3.33,2.12-10.59-.95-13.22a4.8,4.8,0,0,0-7,1.14c-1.62,2.34-1.26,5.84-.42,8.41s4.59,6.81,5.59,7.91c-.52.68-1,1.35-1.55,2-2.45,3.28-4.88,6.55-7.36,9.69-.88,1.11-1.78,2.17-2.68,3.23.45-.8.81-1.47.86-1.58,1.39-3.33,2.12-10.59-1-13.22a4.78,4.78,0,0,0-7,1.14c-1.63,2.35-1.27,5.84-.42,8.41s4.22,6.4,5.4,7.71c-.95,1.06-1.9,2.12-2.87,3.11-.68.65-1.29,1.33-2,1.95L372.44,170c-1.36,1.14-2.76,2.33-4.12,3.41-.93.76-1.84,1.46-2.75,2.17.88-1.09,2.56-3.26,2.68-3.46a18.52,18.52,0,0,0,2.37-9.07,4.94,4.94,0,0,0,.47-.95,4.79,4.79,0,0,0-3-6.45c-3.91-1-9.49,3.65-11.45,6.68-.12.18-1.16,2.26-1.79,3.58.25-.83.51-1.64.76-2.5.51-1.7,1-3.42,1.47-5.26.21-.9.42-1.8.64-2.72s.36-1.89.55-2.84c.39-2.22.67-4.48.91-6.77,1.49.44,6.81,1.94,9.49,1.59s6-1.54,7.4-4a4.79,4.79,0,0,0-2-6.83c-3.7-1.63-9.92,2.17-12.32,4.87-.15.17-1.66,2.3-2.46,3.48.13-1.37.27-2.75.36-4.15.25-4,.38-8.12.53-12.2.05-1.25.11-2.49.16-3.74.53.17,6.82,2.08,9.82,1.69,2.68-.35,6-1.55,7.4-4a4.79,4.79,0,0,0-2-6.83c-3.7-1.63-9.93,2.17-12.33,4.87-.18.2-2.34,3.27-2.86,4.07.13-2.74.27-5.47.53-8.16a84.66,84.66,0,0,1,1.68-10.81c.25.08,6.8,2.11,9.88,1.71,2.67-.35,6-1.55,7.39-4a4.78,4.78,0,0,0-2-6.83c-3.7-1.63-9.93,2.17-12.33,4.87-.16.17-1.81,2.51-2.56,3.64l-.21-.09a61.34,61.34,0,0,1,3.62-10.39c.81-1.85,1.69-3.57,2.58-5.23,1.18.5,6.6,2.74,9.41,2.68s6.12-.87,7.8-3.18a4.79,4.79,0,0,0-1.27-7c-3.49-2-10.1,1.06-12.78,3.48-.15.13-1.48,1.63-2.44,2.73.41-.74.83-1.51,1.24-2.22,1.53-2.64,3.1-5,4.51-7,.8-1.16,1.56-2.19,2.27-3.15,1.42-.11,7.12-.63,9.55-2s5-3.6,5.45-6.42a4.78,4.78,0,0,0-4.35-5.64c-4-.19-8.48,5.6-9.75,9-.11.29-1.3,5.06-1.22,5.06h.08c-.7.91-1.45,1.89-2.25,3-1.45,2-3.08,4.32-4.67,7a82.5,82.5,0,0,0-4.76,8.7,62.82,62.82,0,0,0-3.89,10.39s0,.09,0,.13c-.05-1.18-.31-4.48-.36-4.74-.67-3.54-4.07-10-8.09-10.49a4.79,4.79,0,0,0-5.24,4.83c-.06,2.85,2.18,5.57,4.29,7.24,2.39,1.89,8.79,3.47,9.3,3.59a84.19,84.19,0,0,0-2,11.13c-.25,2.18-.44,4.39-.6,6.6-.08-1-.16-1.93-.18-2.06-.68-3.55-4.08-10-8.09-10.5a4.79,4.79,0,0,0-5.24,4.83c-.06,2.86,2.17,5.57,4.29,7.25s7.58,3.15,9,3.52c-.05.85-.12,1.69-.17,2.54-.23,4.09-.46,8.16-.79,12.15-.12,1.4-.29,2.78-.46,4.16-.07-.9-.13-1.67-.15-1.78-.68-3.55-4.08-10-8.09-10.5a4.79,4.79,0,0,0-5.24,4.83c-.06,2.85,2.17,5.57,4.28,7.24s7.06,3,8.77,3.46c-.21,1.4-.42,2.82-.69,4.17-.2.92-.33,1.83-.59,2.74l-.69,2.71c-.51,1.7-1,3.46-1.56,5.11-.36,1.15-.73,2.24-1.09,3.34.13-1.4.34-4.14.33-4.37-.14-3.61-2.52-10.51-6.41-11.6a4.78,4.78,0,0,0-5.91,4c-.49,2.81,1.3,5.83,3.14,7.81,2,2.17,7.87,4.63,8.6,4.93-.62,1.82-1.23,3.58-1.84,5.23-2.06,5.67-4,10.33-5.41,13.58l2.37,1.37.09-.21c1.36-3.33,3.23-8.11,5.21-13.95.63-1.84,1.27-3.82,1.91-5.86a50.27,50.27,0,0,0,6.09.52c.67,3,3.95,7.9,4.37,8.54-1.51,1.17-3,2.3-4.41,3.34-4.85,3.6-9,6.41-12,8.35l2.61,1.5c2.85-2,6.59-4.64,10.85-7.94,1.54-1.18,3.16-2.48,4.82-3.83.58.52,5.33,4.72,8.17,5.61,2.58.8,6.08,1.11,8.4-.56a4.79,4.79,0,0,0,1-7.05c-2.68-3-9.92-2.19-13.24-.74-.19.08-2.21,1.24-3.47,2,.68-.56,1.34-1.09,2-1.67,1.37-1.14,2.69-2.32,4.13-3.58l2-1.91c.69-.63,1.34-1.38,2-2.07,1.54-1.63,3-3.36,4.49-5.14,1,1.19,4.61,5.37,7.05,6.56s5.84,2,8.38.72a4.77,4.77,0,0,0,2.08-6.81c-2.18-3.4-9.47-3.67-13-2.74-.22.05-2.65,1-4,1.55.87-1.08,1.75-2.15,2.59-3.27,2.44-3.22,4.8-6.56,7.18-9.88l2.2-3c.35.43,4.53,5.49,7.26,6.82,2.42,1.19,5.84,2,8.39.73a4.79,4.79,0,0,0,2.08-6.81c-2.19-3.41-9.48-3.67-13-2.75-.26.07-3.76,1.44-4.63,1.83,1.62-2.22,3.25-4.42,4.95-6.52a83.09,83.09,0,0,1,7.36-8.09c.16.2,4.5,5.51,7.3,6.87,2.42,1.18,5.84,2,8.39.73a4.79,4.79,0,0,0,2.07-6.82c-2.18-3.4-9.47-3.67-13-2.74-.23.06-2.89,1.1-4.15,1.62l-.12-.19a60.75,60.75,0,0,1,8.74-6.66c1.7-1.1,3.38-2.06,5-2.95.71,1.07,4,5.93,6.38,7.44s5.58,2.64,8.25,1.64a4.8,4.8,0,0,0,2.82-6.55c-1.8-3.62-9-4.68-12.59-4.15-.19,0-2.13.55-3.54.94.75-.39,1.52-.81,2.26-1.17,2.74-1.36,5.33-2.43,7.63-3.37,1.32-.52,2.51-1,3.64-1.37,1.24.69,6.28,3.4,9,3.64s6.17-.23,8.08-2.35A4.79,4.79,0,0,0,453.14,108.13Z"></path></g><g style="opacity:0.2"><path d="M399.07,362.71c-2.26-.12-7,1.77-7,1.77s2.19,2.73,2.35,2.89c1.87,1.79,6.52,4.17,9.08,2.8a3.43,3.43,0,0,0,1.07-5C403.43,363.48,401,362.81,399.07,362.71Z"></path><path d="M350.49,379.71c-.05,0,.32,3.49.37,3.7.56,2.53,3.14,7.08,6,7.34a3.43,3.43,0,0,0,3.64-3.57c0-2-1.68-3.94-3.23-5.09C355.48,380.73,350.49,379.71,350.49,379.71Z"></path><path d="M342.74,402.3c2.8-.72,4.62-5.62,4.78-8.21,0-.22-.17-3.74-.22-3.72l-.06,0c.29-.77.6-1.6.91-2.51.57-1.69,1.2-3.61,1.75-5.74a62,62,0,0,0,1.42-7,44.48,44.48,0,0,0,.48-7.94s0-.06,0-.09c.29.8,1.15,3,1.24,3.17,1.21,2.29,4.9,6,7.75,5.49a3.42,3.42,0,0,0,2.57-4.41c-.55-2-2.66-3.36-4.46-4.06-2-.79-6.75-.52-7.12-.5a61,61,0,0,0-1-8c-.29-1.55-.62-3.1-1-4.66.27.69.52,1.3.56,1.38,1.21,2.29,4.9,6,7.75,5.49a3.43,3.43,0,0,0,2.57-4.41c-.55-2-2.65-3.36-4.46-4.06s-5.85-.57-6.92-.51l-.42-1.79c-.7-2.84-1.4-5.68-2-8.48-.21-1-.39-2-.57-2.95.24.6.45,1.11.49,1.19,1.21,2.29,4.89,6,7.75,5.49a3.43,3.43,0,0,0,2.57-4.41c-.56-2-2.66-3.36-4.46-4.06s-5.46-.58-6.73-.52c-.15-1-.31-2-.41-3,0-.67-.15-1.32-.17-2l-.09-2c0-1.27,0-2.59,0-3.83,0-.87,0-1.69.05-2.52.2,1,.63,2.91.69,3.07a13.38,13.38,0,0,0,3.94,5.44,4.28,4.28,0,0,0,.31.69,3.43,3.43,0,0,0,4.95,1.25c2.36-1.68,2.3-6.9,1.52-9.37,0-.15-.72-1.67-1.17-2.62l1,1.56c.71,1.06,1.45,2.09,2.24,3.21L360,328c.39.54.88,1.06,1.32,1.6,1.05,1.22,2.17,2.41,3.33,3.58-.92.63-4.17,2.89-5.2,4.54s-1.87,4-1.14,5.92a3.43,3.43,0,0,0,4.7,2c2.59-1.3,3.32-6.48,2.92-9,0-.16-.52-2-.81-2.94.7.7,1.4,1.4,2.13,2.08,2.12,2,4.32,3.92,6.51,5.86l2,1.79c-.33.22-4.25,2.82-5.41,4.67-1,1.64-1.87,4-1.14,5.92a3.43,3.43,0,0,0,4.7,2c2.59-1.3,3.32-6.48,2.93-9,0-.19-.75-2.78-1-3.43,1.46,1.31,2.91,2.64,4.28,4a60.3,60.3,0,0,1,5.21,5.85c-.15.1-4.26,2.8-5.44,4.69-1,1.64-1.87,4-1.14,5.92a3.43,3.43,0,0,0,4.7,2c2.59-1.3,3.32-6.48,2.92-9,0-.17-.56-2.15-.84-3.08l.14-.08a44.1,44.1,0,0,1,4.1,6.73c.66,1.3,1.21,2.57,1.72,3.82-.81.42-4.52,2.4-5.77,4S383.5,372,384,374a3.43,3.43,0,0,0,4.46,2.49c2.72-1,4-6.07,3.9-8.66,0-.14-.23-1.56-.41-2.6.22.57.46,1.15.67,1.7.76,2.05,1.33,4,1.83,5.69.27,1,.5,1.87.7,2.7-.58.83-2.89,4.23-3.26,6.17s-.3,4.42,1.07,5.94a3.43,3.43,0,0,0,5.1.16c1.95-2.15.76-7.24-.53-9.48-.11-.2-2.21-3-2.24-3l0,.05c-.18-.81-.38-1.67-.62-2.6-.46-1.73-1-3.68-1.71-5.76a61.46,61.46,0,0,0-2.66-6.59,44.05,44.05,0,0,0-4-6.88l-.06-.08c.68.51,2.62,1.88,2.79,2,2.27,1.24,7.39,2.3,9.49.31a3.44,3.44,0,0,0-.29-5.1c-1.55-1.33-4.07-1.34-6-.93-2.13.46-5.92,3.29-6.22,3.52a60.2,60.2,0,0,0-5.25-6.17c-1.09-1.14-2.23-2.25-3.38-3.35.6.43,1.14.8,1.22.84,2.27,1.24,7.39,2.3,9.49.31a3.43,3.43,0,0,0-.28-5.1c-1.55-1.33-4.07-1.34-6-.93s-5.2,2.76-6.06,3.39l-1.34-1.25c-2.14-2-4.3-4-6.35-6-.72-.71-1.41-1.43-2.1-2.15.53.38,1,.69,1.06.73,2.27,1.24,7.39,2.3,9.49.3a3.43,3.43,0,0,0-.28-5.1c-1.56-1.33-4.08-1.33-6-.92s-4.87,2.53-5.9,3.28c-.68-.76-1.37-1.52-2-2.29-.41-.53-.85-1-1.24-1.57L360,325.47c-.71-1.05-1.46-2.14-2.13-3.18-.47-.73-.9-1.43-1.34-2.13.71.71,2.13,2.07,2.27,2.17,2.05,1.57,6.95,3.39,9.33,1.74a3.42,3.42,0,0,0,.49-5.08c-1.33-1.56-3.82-1.94-5.75-1.82-2.12.13-6.15,2.24-6.65,2.51-.72-1.17-1.42-2.31-2.05-3.4-2.2-3.72-3.9-6.92-5.05-9.18l-1.84.69a1.09,1.09,0,0,0,.08.15c1.22,2.27,3,5.48,5.34,9.23.73,1.19,1.53,2.44,2.37,3.72A39.8,39.8,0,0,0,352,324c-1.95-1-6.17-1.41-6.71-1.47,0-1.37.09-2.7.15-4,.23-4.33.58-7.92.86-10.45l-2,.76c-.21,2.48-.44,5.76-.55,9.62-.05,1.39-.07,2.88-.07,4.41-.55.09-5.05.8-6.83,2-1.62,1.06-3.38,2.86-3.52,4.9a3.44,3.44,0,0,0,3.44,3.78c2.89-.1,5.73-4.49,6.44-7,0-.15.31-1.79.47-2.83,0,.62,0,1.23,0,1.87,0,1.28.06,2.55.1,3.91.05.66.09,1.33.14,2s.15,1.37.22,2.06c.2,1.6.48,3.21.8,4.83-1.12,0-5.08.1-6.84.91s-3.78,2.32-4.22,4.31a3.43,3.43,0,0,0,2.82,4.26c2.88.34,6.35-3.58,7.42-5.93.07-.15.66-1.92,1-2.9.2,1,.39,1.94.62,2.91.68,2.82,1.45,5.65,2.2,8.48.23.86.45,1.73.68,2.59-.4,0-5.11,0-7.08.91-1.76.81-3.78,2.32-4.22,4.32a3.43,3.43,0,0,0,2.82,4.25c2.88.34,6.34-3.57,7.42-5.93.08-.17.92-2.73,1.1-3.39.49,1.91,1,3.81,1.36,5.71a60.82,60.82,0,0,1,1.12,7.75c-.19,0-5.1,0-7.13.91-1.76.81-3.77,2.32-4.22,4.31a3.44,3.44,0,0,0,2.83,4.26c2.87.34,6.34-3.58,7.42-5.93.07-.15.71-2.1,1-3l.16,0a44.19,44.19,0,0,1-.29,7.87c-.17,1.44-.41,2.81-.67,4.13-.91-.1-5.1-.49-7,.14s-4,1.89-4.67,3.82a3.43,3.43,0,0,0,2.34,4.54c2.82.66,6.69-2.85,8-5.07.08-.12.68-1.43,1.1-2.39-.13.59-.25,1.21-.38,1.78-.5,2.13-1.08,4.06-1.61,5.76-.31,1-.61,1.83-.9,2.64-.95.37-4.75,1.93-6.13,3.34s-2.69,3.52-2.38,5.55A3.44,3.44,0,0,0,342.74,402.3Z"></path></g><g style="opacity:0.2"><path d="M154.24,145.58c2.09-.88,5.52-4.64,5.52-4.64s-3.16-1.51-3.37-1.58c-2.46-.8-7.69-.91-9.39,1.43a3.43,3.43,0,0,0,1.21,5C150,146.78,152.45,146.33,154.24,145.58Z"></path><path d="M190.58,109.13s-1.81-3-2-3.18c-1.61-2-5.91-5-8.62-4a3.43,3.43,0,0,0-1.73,4.81c.91,1.83,3.23,2.82,5.13,3.18C185.64,110.37,190.57,109.13,190.58,109.13Z"></path><path d="M187.72,85.41c-2.21,1.87-1.72,7.08-.73,9.47.08.21,1.78,3.29,1.82,3.25l0,0c.07.82.16,1.7.27,2.66.22,1.77.49,3.77.93,5.93a62.26,62.26,0,0,0,1.75,6.89,44.09,44.09,0,0,0,3,7.35l0,.09c-.6-.6-2.34-2.21-2.49-2.32-2.09-1.53-7-3.27-9.37-1.57a3.43,3.43,0,0,0-.4,5.09c1.36,1.53,3.86,1.87,5.79,1.72,2.17-.18,6.3-2.47,6.63-2.66a61.41,61.41,0,0,0,4.38,6.82c.93,1.27,1.91,2.52,2.91,3.76-.54-.5-1-.94-1.1-1-2.09-1.53-7-3.27-9.37-1.57a3.43,3.43,0,0,0-.4,5.09c1.36,1.53,3.86,1.87,5.79,1.71s5.52-2,6.45-2.55l1.16,1.42c1.86,2.26,3.73,4.51,5.5,6.77.62.8,1.21,1.6,1.79,2.41-.48-.45-.88-.81-.95-.86-2.09-1.54-7-3.27-9.37-1.57a3.43,3.43,0,0,0-.39,5.09c1.35,1.53,3.85,1.87,5.78,1.71s5.17-1.86,6.29-2.46c.57.84,1.15,1.69,1.67,2.53.34.58.71,1.12,1,1.73l1,1.76c.57,1.14,1.16,2.31,1.68,3.44.37.78.71,1.53,1,2.29-.61-.8-1.84-2.34-2-2.46a13.27,13.27,0,0,0-5.92-3.18,3.86,3.86,0,0,0-.58-.49,3.43,3.43,0,0,0-5,1c-1.39,2.55.94,7.23,2.71,9.11.11.11,1.38,1.18,2.2,1.85l-1.62-1c-1.1-.64-2.21-1.25-3.41-1.91l-1.79-.9c-.59-.32-1.25-.57-1.88-.87-1.48-.64-3-1.22-4.56-1.77.56-1,2.5-4.42,2.71-6.35s-.06-4.43-1.55-5.83a3.43,3.43,0,0,0-5.1.26c-1.77,2.3-.17,7.28,1.3,9.4.09.14,1.32,1.55,2,2.31-.94-.33-1.87-.66-2.83-.95-2.76-.86-5.59-1.65-8.4-2.44-.87-.24-1.72-.5-2.58-.75.2-.34,2.6-4.39,2.83-6.55.21-1.92-.06-4.43-1.55-5.83a3.44,3.44,0,0,0-5.1.25c-1.76,2.3-.17,7.28,1.3,9.41.12.16,1.89,2.19,2.36,2.68-1.89-.55-3.77-1.12-5.6-1.75a60.72,60.72,0,0,1-7.24-3c.1-.16,2.62-4.37,2.86-6.59.21-1.92-.06-4.43-1.55-5.83a3.43,3.43,0,0,0-5.1.26c-1.77,2.3-.17,7.28,1.3,9.4.1.14,1.45,1.69,2.1,2.41l-.1.13a43.93,43.93,0,0,1-6.61-4.28c-1.16-.88-2.21-1.78-3.21-2.68.55-.74,3-4.13,3.46-6.1s.42-4.41-.91-6a3.43,3.43,0,0,0-5.09-.31c-2,2.1-1,7.22.26,9.5.07.12.89,1.31,1.5,2.16-.45-.41-.92-.83-1.34-1.24-1.58-1.51-2.94-3-4.13-4.33-.67-.76-1.26-1.46-1.81-2.12.16-1,.77-5.06.26-7s-1.66-4.11-3.55-4.88a3.43,3.43,0,0,0-4.67,2.07c-.81,2.79,2.47,6.85,4.61,8.31.19.12,3.3,1.76,3.31,1.71v-.06c.52.64,1.07,1.33,1.7,2.07,1.16,1.35,2.49,2.87,4,4.43a61,61,0,0,0,5.25,4.78,44.68,44.68,0,0,0,6.59,4.46l.08,0c-.83-.17-3.18-.55-3.36-.56-2.58-.13-7.65,1.15-8.68,3.86a3.43,3.43,0,0,0,2.48,4.46c2,.53,4.25-.57,5.77-1.76,1.72-1.34,3.9-5.53,4.07-5.87a60.43,60.43,0,0,0,7.41,3.27c1.48.55,3,1.05,4.5,1.54l-1.46-.23c-2.59-.12-7.66,1.15-8.68,3.86a3.43,3.43,0,0,0,2.47,4.47c2,.52,4.25-.57,5.78-1.76s3.47-4.75,4-5.69c.58.18,1.16.37,1.75.54,2.8.86,5.6,1.7,8.32,2.61,1,.32,1.89.67,2.83,1-.65-.1-1.19-.19-1.28-.19-2.58-.13-7.65,1.15-8.67,3.86a3.42,3.42,0,0,0,2.47,4.46c2,.53,4.25-.56,5.77-1.76s3.29-4.4,3.89-5.52c.94.39,1.89.77,2.79,1.19.61.29,1.22.54,1.81.87l1.77.94c1.1.64,2.24,1.3,3.3,1.95l2.13,1.33c-1-.33-2.82-.94-3-1-2.54-.52-7.74,0-9.17,2.5a3.44,3.44,0,0,0,1.78,4.79c1.87.82,4.28.08,6-.87,1.85-1,4.55-4.69,4.89-5.15,1.16.73,2.28,1.46,3.33,2.16,3.6,2.4,6.51,4.53,8.54,6.07l1.36-1.42-.14-.1c-2.09-1.51-5.1-3.62-8.83-6-1.17-.75-2.44-1.53-3.76-2.32a36.17,36.17,0,0,0,1.39-4.15c2.19,0,6.17-1.42,6.69-1.61.56,1.26,1.09,2.48,1.58,3.64,1.68,4,2.93,7.38,3.78,9.78l1.49-1.56c-.89-2.33-2.12-5.38-3.69-8.9-.57-1.27-1.2-2.62-1.86-4,.46-.31,4.19-2.91,5.29-4.74,1-1.66,1.8-4.05,1-5.94a3.43,3.43,0,0,0-4.73-1.91c-2.57,1.35-3.21,6.54-2.76,9.09,0,.15.49,1.75.8,2.75-.27-.56-.53-1.11-.82-1.68-.56-1.15-1.15-2.27-1.79-3.48l-1-1.74c-.32-.59-.73-1.17-1.09-1.76-.88-1.35-1.84-2.68-2.83-4,1-.49,4.53-2.3,5.76-3.8s2.4-3.72,1.93-5.71a3.43,3.43,0,0,0-4.4-2.6c-2.74.94-4.15,6-4.1,8.56,0,.16.25,2,.41,3-.6-.79-1.2-1.58-1.84-2.35-1.83-2.25-3.75-4.46-5.66-6.67-.59-.68-1.16-1.37-1.74-2.05.35-.17,4.59-2.23,6-3.9,1.23-1.49,2.39-3.73,1.92-5.72a3.44,3.44,0,0,0-4.4-2.6c-2.74.95-4.15,6-4.1,8.57,0,.19.37,2.86.49,3.53-1.27-1.5-2.53-3-3.7-4.55a60.19,60.19,0,0,1-4.39-6.49c.17-.08,4.6-2.21,6-3.92,1.23-1.49,2.39-3.73,1.92-5.72a3.43,3.43,0,0,0-4.39-2.6c-2.74.94-4.16,6-4.11,8.56,0,.17.28,2.2.43,3.17l-.15,0a43.9,43.9,0,0,1-3.16-7.22c-.48-1.36-.86-2.7-1.2-4,.86-.32,4.8-1.78,6.25-3.19s2.79-3.44,2.54-5.47a3.43,3.43,0,0,0-4.08-3.07c-2.83.64-4.79,5.49-5,8.07,0,.14,0,1.58.06,2.62-.15-.59-.31-1.19-.44-1.76-.48-2.14-.79-4.13-1.05-5.89-.14-1-.25-1.92-.34-2.77.69-.75,3.43-3.8,4.06-5.68s.88-4.34-.27-6A3.44,3.44,0,0,0,187.72,85.41Z"></path></g></g><g id="freepik--World--inject-2"><circle cx="257.27" cy="267.55" r="100.25" transform="translate(-79.25 424.15) rotate(-71.08)" style="fill:#2B49D0"></circle><path d="M237.14,360.3a94.48,94.48,0,0,0,16.35,2.08" style="fill:none"></path><path d="M224.86,356.74c2.71,1,5.48,1.86,8.29,2.6" style="fill:none"></path><polygon points="243.69 223.03 253.91 225.14 257.4 228.76 261.94 229.46 263.38 233.76 262.32 236.68 259.23 238.1 251.64 236.86 251.43 235.93 255.02 233.43 252.54 228.86 245.76 227.93 242.15 224.83 243.69 223.03" style="fill:#fff"></polygon><path d="M326.05,317.33,318,316l-9.78-1.24-7.2,1.6-7.05.11-7.07,3.27-4.13,1.16-2.55.57-4.26,3.87-4.23,2.89-7.15-2.56.18-6.86L260.4,318l-4.64,1-1.16-1.93-.47-4.29-2.14-2-3.15,1.19-.41,2.53-3.9,1.11-4.41-3.41L237.49,307l2-7.27,6.84-1,2.22,1.21,2.78-.62,3-2.86,3.23.25L263.4,303l1.57-.6-1.65-5.24-2-2.47-.52-4.52,7.77-5.62-.75-8.86,3.05-3.84,1.83-6,2.22-1,4.57-4.67-.18-1.91-3.66,1.05-1.11-1.7-2.56.57-3.74,1.8,1.19-3.43,7.61-4.13,1.39-2.5,4.39,4.39,2.56,1.62,3-1.65-2.06-2.71-5.65-2.4-7-5-6.68-2.66-5.79.31-3.4-2.17-3.92-.1-.26,1,1,6.84,1.44,2.12-.44,7.89-5.47-2.68,0-3.41-5.4-1.24L242.17,248l-.13-6.06,5.65-6.38-.77-5.67-2.51.8-2.09-1.73-1.47-3.33-1.67.13-.11,3.92-2.45,1-3-7.87-2.11-.75L228,221.4l-3.31,2.68,5.63,3.38,1.81,3.75-9.76-4.42-7.2-5-1.86-6.17-6.45-.52-4,4.06a38,38,0,0,1-3.07,2.63,40,40,0,0,1-5.37,2.16l-.05,4.16-5.29,1.42,1,2.45,8.9-.52,5.5,3.9,1.8,8.13-.95,7.77,2.16,7.56-4,12.83,2.37,17.26,4.26,9.29,4.67,6.76,3.58-.31-2-3.45L214,298.84l-2.3-4.85,2-.93,5.11,7.64,4,6.92,1.34,6,5.6,4.37,9.19,4.05,12.8.57,4.49,2.66,3.61,3.09,4.75,1.63,5.42.26,5.06-1.37s.28,2.38.54,3.54-2.12,5.83-2.12,5.83l-1.52,5.21,3,4.7,5.58,1,8.85,5.83,3.56.67.77,3.48.77,1.54a100,100,0,0,0,43.62-33.75l-.26-1.71,3.75-12.78L338.05,311Z" style="fill:#fff"></path><path d="M329.83,220.23l-3.53-3.85L321.91,212l-2.47-6.76,4.33-.23-.28-2.37-3.07.43,2.29-1.73,2.43-2.24-.52-2.32-3.61-3.1-1.7-4.87a100.34,100.34,0,0,0-121-2.32l6.2,2.61-2.32,4.9-4.21,1.91.93,6.37-1.7,1.11-1.76,3.07,1.16,4.13,4.05-.41-.74,4.31,3.94-.88,4.83-10.09-.13-3.87,6.4-1.91,1-3.15,6.58-2.19-.18-4.1,4.83-1.32s3.07-2.63,3.77-2.78a28.35,28.35,0,0,1,4.2.28l4.1,2,4.88-1.08,3.61-3.48,5.45-.72a5.85,5.85,0,0,0,2.76.36c1.16-.26,4.29-2.66,4.29-2.66l7.66,2.69,3.25,1.47.77,3.48,3.59-.31.7-2.35,3.33.73.18,1.91-6.56,3.4,5.09,4.23,9.39,2.79,4.51,3.87,5.22-.67.64-2.58,1.76-.87-7.07-3.31-3.82.36,2.81-1.6L288,188.81l3.89-1.11,5.73,1.66,2.4,5.31,3.23,2.46,3.58,6.27,5.94,2.58,1.7,7.66,6.12,2.3.33,2.61,0,3.17,2.32,3.87.93,2,4.1-.18,1-4.36Z" style="fill:#fff"></path><path d="M327.66,196.16l.29,1.33-.33,4,1.42,3.1,2.76.36,1,4.42-3-.55,2.09,12.7-1.65,5.73,3.3,6.09,3.64,2.12L339.9,248l5.18,9.08,4.9,6.71,5.65.21.83-5.06.63-.76a102.16,102.16,0,0,0-1.95-12.33A99.76,99.76,0,0,0,327.66,196.16Z" style="fill:#fff"></path><polygon points="273.68 206.62 256.86 203.29 250.17 205.01 249.53 209.79 246.07 207.39 241.22 209.69 242.46 217.45 247.31 219.54 249.35 214.46 253.6 217.17 262.2 221.84 265.09 228.27 272.83 234.59 282.22 230.8 281.21 227.37 278.25 223.88 275.72 214.69 277.17 210.23 273.68 206.62" style="fill:#fff"></polygon><polygon points="287.36 208.94 283.67 208.79 281.22 212.01 284.34 218.39 287.36 217.72 287.36 208.94" style="fill:#fff"></polygon><polygon points="309.94 208.56 301.11 206.13 298.87 203.71 297.17 204.81 299.82 209.1 302.56 214.83 306.35 215.45 306.84 214.37 303.98 211.34 310.53 212.33 309.94 208.56" style="fill:#fff"></polygon><polygon points="260.74 307.47 260.02 308.6 267.45 309.14 270.96 311.78 275.47 311.26 276.53 308.35 270.98 308.6 260.74 307.47" style="fill:#fff"></polygon><polygon points="282.39 307.29 277.82 309.77 278.93 311.47 284.97 310.13 285.72 308.01 283.68 308.71 282.39 307.29" style="fill:#fff"></polygon></g></svg>