<svg xmlns="http://www.w3.org/2000/svg" viewBox="0 0 500 500"><g id="freepik--World--inject-3"><g id="freepik--world--inject-3"><g id="freepik--world--inject-3"><path d="M153.14,251.84a124.76,124.76,0,1,0-23-113.31A124.78,124.78,0,0,0,153.14,251.84Z" style="fill:#1A1CEB"></path><path d="M153.14,251.84a124.76,124.76,0,1,0-23-113.31A124.78,124.78,0,0,0,153.14,251.84Z" style="fill:#fff;opacity:0.6000000000000001"></path><path d="M129.38,187.39c-.31-.32-2.79-3.79-2.75-3.83a.46.46,0,0,0,.15-.48c0-.14-.73-.54-1.22-1,.1,1.53.24,3.05.4,4.57.56.54,1.42,1,1.85,1.39s1.65,2.22,2.34,2.12C131.34,190,129.7,187.72,129.38,187.39Zm24.7-90.92a4,4,0,0,0,1.78.16,1.32,1.32,0,0,1,.76.14c.65.43-.49,2.26,0,2.8.31.32,1,.12,1.53.07a10.74,10.74,0,0,0,2.36-.36,6.91,6.91,0,0,0,1.43-.73A25.85,25.85,0,0,1,165.55,97a2,2,0,0,0,1.51-2.22c-.07-.89-.86-.8-1.79-.44-1.24.49-2.66,1.26-3,1.38s-.55.11-.43-.17c.21-.53,1.71-1.15,2-1.29l1.76-1c1-.53,2.08-1,2.55-1.25a6,6,0,0,0,.86-.52,5.66,5.66,0,0,0,1.19-1.09c.59-.92,0-1.31.6-2.13a6.88,6.88,0,0,1,1.74-1.5,19.77,19.77,0,0,0,1.84-1.45c1.1-1.1.93-2.26,1.68-3.54a7.86,7.86,0,0,1,1.58-1.88c.89-.78,2.11-1.71,2.77-2.33l1.18-1.11A8.35,8.35,0,0,0,182.84,75c.25-.37.46-.81.7-1.17a2.77,2.77,0,0,1,.8-.83,6.13,6.13,0,0,0,2.1-2.77c.48-1.45-.55-1-.81-1.26-.44-.46-1.1-.33-1.83-.13-1.58.42-3.44,1.42-5.31,2.13q-3.62,2.53-7.11,5.36c-2,1.62-3.91,3.31-5.78,5a3.57,3.57,0,0,0,1.37.35c1.13.2,2.86-1.19,4.28-1.81.63-.28,2.54-1.37,2.72-.77.28.92-1.84,2.28-2.29,2.55a2.67,2.67,0,0,0-1,.88c-.49.78-1.31,1.84-1.95,1.51a3,3,0,0,0-1.2-.55.8.8,0,0,0-.8.53c-.36.71-1.51,1.94-1.8,1.18-.16-.45-.19-1.11-.58-1.27s-.73-.07-1-.23a.93.93,0,0,1-.15-.13q-2.78,2.69-5.36,5.51a2.18,2.18,0,0,0,.54.51,3.57,3.57,0,0,0,2.31.49,6.71,6.71,0,0,0,1.32-.39c.52-.2,1.7-1.15,2.06-1s-.16,1.4-.61,2.12a11.26,11.26,0,0,1-2.79,2.93,5.32,5.32,0,0,1-3.9,1.27c-.4,0-2.05-.33-2.64.35S153.76,96.28,154.08,96.47Zm-7.59,13.38c1.38.61,2.87-1,3.66-2.49,1-1.86-1-1.74-.25-2.44.5-.48,1.1-1.07.82-1.33-.08-.09-.26-.07-.34-.15s-.94,0-2.27.87-1.58,2.27-2.54,2.81S145.57,109.44,146.49,109.85Zm4.74-9.63c.17-.3,1.07-2.08.63-2.79-.22-.34-.61-.25-1,0-.48.62-.94,1.26-1.4,1.89a5,5,0,0,0,.49,1.15C150.19,101.15,151.06,100.51,151.23,100.22Zm34.9-26c-.46,1.44-2.07,1.31-2.63,1.63a3.85,3.85,0,0,0-.8.61,4.06,4.06,0,0,0-.8,2.51c0,.29,0,.56-.76,1.37A23.79,23.79,0,0,1,178,83.13a5.8,5.8,0,0,0-2,2.73c-.42,1.14,0,1.07.32,1.38a1.72,1.72,0,0,1,.4.58c.17.4.33,1.51.85,1.62s2.07-.76,3.22-1.33c1.95-1,3.82-1.72,4.95-.13a4,4,0,0,1,.68,1.85,19.73,19.73,0,0,1-.62,5.11,3.72,3.72,0,0,0,0,2.24c.59,1.15,2,1,2.66,2.29a5.54,5.54,0,0,1-.28,4c-.59,1.57-1.44,2.21-2.17,3.57s-.29,2.72-.35,4a12.49,12.49,0,0,0,.78,4.67,35.33,35.33,0,0,0,2,4.7,5.62,5.62,0,0,0,1.09,1.6c.73.69,2.55.66,3.79.22a4.11,4.11,0,0,0,2.08-1.55c1.21-1.78.66-4.27,1-6.34a5.3,5.3,0,0,1,2.4-3.85c1.13-.74,2.67-1.33,3.55-2.68.73-1.11,1.06-2.75,1.84-3.78,1.05-1.38,2.89-1.53,4.14-2.24.87-.49,2.57-1.62,2.59-3,0-.74-.29-1.09,0-1.82a2.64,2.64,0,0,1,.9-1c.14-.11.41-.21.66-.36s.4-1.14.07-1.56-.47-.56-.59-.76c-.89-1.49-1.14-2.75,0-3.78.94-.86,2.58-2.57,2-4.49-.37-1.15-1.07-1.51-1.19-2.82a4.91,4.91,0,0,1,.1-1.46,13.39,13.39,0,0,1,1-2.3,1.57,1.57,0,0,0,0-1.34c-.4-.85-1.26-.84-1.74-1.34-2.51-2.56,4.29-8.76,3.44-10a1,1,0,0,0-.68-.35,6.55,6.55,0,0,0-1.63-.07,2.79,2.79,0,0,0-.89.25,2.82,2.82,0,0,0-1,1.06c-.47.73-1.09,1.56-1.32,1.35s-.16-.29-.37-.55c-.59-.75-.58-.12-1.17.28-.28.2-1.33.41-1.49-.52s.72-2,1-2.56a2.25,2.25,0,0,1,.77-1c.49-.34.3-1.61-.58-2.25a5.53,5.53,0,0,0-2.76-.93,8.33,8.33,0,0,0-5.4,1.26,12.08,12.08,0,0,0-2.57,2c-1.11,1.13-2.06,3.54-3.32,4.82a2,2,0,0,1-2.18.56c-1.3-.22-3-.5-5,2.12C185.63,72.81,186.57,72.84,186.13,74.25Zm179.5,112.94a6.61,6.61,0,0,0,.84,3.64,6.3,6.3,0,0,0,1.43,2.27,3.08,3.08,0,0,0,5-1c.22-.52.43-1.55.73-2.19.23-1.69.41-3.38.57-5.08a2,2,0,0,1-.1-2.15c.56-1.17.55-2.69-.67-2.75s-1.66,1.25-2.45,2.3a26.68,26.68,0,0,1-3.2,3.4C367.1,186.22,365.77,185.75,365.63,187.19ZM237.29,69.11c.35.3.68.72,1,1a5.7,5.7,0,0,0,1.34.93,15.4,15.4,0,0,1,1.61,1,1.37,1.37,0,0,1,.2.22c.2.32.07.25.08.5,0,.45.31.68.78.87s.76.41,1.16.63c.64.35,1.79.41,1.93-.24a5.65,5.65,0,0,0,0-1.3,9.63,9.63,0,0,1-.12-2.18,2.63,2.63,0,0,0,0-.31c0-.17.38-.42.94-.19.38.16.79.38,1,.47l.4.17c.22.11.24.45.25.56a.32.32,0,0,0,.11.22.94.94,0,0,0,.44.23,5.32,5.32,0,0,0,1.6.41,1.76,1.76,0,0,0,.62-.08.61.61,0,0,0,0-1.06,17.24,17.24,0,0,1-2.42-1,5.9,5.9,0,0,1-1.39-1.21c-.75-.93,0-1.19.57-1.25a7.39,7.39,0,0,0,1.43-.28A3.09,3.09,0,0,0,250.66,66a1.46,1.46,0,0,0-.17-1.12l-.09-.09a2,2,0,0,0-2-.4,23.87,23.87,0,0,1-2.42.31,5.44,5.44,0,0,1-1.08.08,2.73,2.73,0,0,0-.84-.07,3.43,3.43,0,0,0-1.29.7,2.6,2.6,0,0,1-1.56.62c-.34,0-.91-.13-.9.3,0,.61.83,1.09,1,1.66s-.38.32-.75,0-.4-.84-.73-1.13-.53-.13-.57,0c-.07.33.06.79-.57.45-.36-.19-.54-.48-.93-.56-.66-.13-2,.47-1.36,1.56A3.21,3.21,0,0,0,237.29,69.11Zm51.82,17a17,17,0,0,0,1.7.86,2.21,2.21,0,0,0,2.19-.25c.34-.36-.23-1.12-.59-1.67a7.24,7.24,0,0,0-.42-.61,6.26,6.26,0,0,1-.74-2.16,4.93,4.93,0,0,1,0-1.39,5.23,5.23,0,0,1,1.17-2.5,15.35,15.35,0,0,1,3.41-2.79c.6-.37,1.22-.71,1.85-1,.38-.2.77-.38,1.16-.56a6.75,6.75,0,0,0,1-.32,1,1,0,0,0-.21-1.69,1.75,1.75,0,0,0-.4-.16,1.21,1.21,0,0,0-1,.2,8.21,8.21,0,0,1-2.53.86c-3.67.69-6.54,2.32-7.45,5.77a17.93,17.93,0,0,0-.76,3.7c0,.47,0,.94-.45,1.05-.31.08-.43.2-.28.6A4.6,4.6,0,0,0,289.11,86.08ZM225.3,107.25c.67-1.81-1.68-4.25-2.55-4-.52.13-1,.68-1.4.91a9.08,9.08,0,0,1-1.72.37c-.95.2-1.75,1.66-2.54.82s-1.14,2.15,0,3.73C219.78,112.71,224.29,110,225.3,107.25Zm144.37,90.8a19.56,19.56,0,0,0-3.13.31,3.85,3.85,0,0,1-1.7-.12,1.71,1.71,0,0,1-.79-.53,3.87,3.87,0,0,1-.36-2.42,3.36,3.36,0,0,0-.95-2.45c-.25-.29-.5-.61-.75-.89-.4-.45-.94-.62-1.34-1.09a2.81,2.81,0,0,1-.77-1.72,1.68,1.68,0,0,1,.39-1.08,3.23,3.23,0,0,0,.18-2.39c-.18-.45-.41-.87-.55-1.2a15.68,15.68,0,0,0-1-1.7c-.17-.27-.41-.43-.58-.7a13.44,13.44,0,0,1-2-6.59c0-.69.2-1.4.79-1.42a1,1,0,0,1,.52.16,6,6,0,0,1,1.15,1.11c.3.38.61.73.7.72,1.18-.21,1.63,4.11,3,2.19.44-.6,1.09-1,1.55-1.57a7.5,7.5,0,0,0,.54-.77,6.47,6.47,0,0,0,.79-2.45,5.23,5.23,0,0,0-.13-1.62,8.67,8.67,0,0,0-1.48-3.05,8.93,8.93,0,0,0-1.19-1.45,1.75,1.75,0,0,1-.84-1.33c-.2-1.62,1-3.59,2.45-3.22a2.25,2.25,0,0,0,2.49-.73,10.87,10.87,0,0,1,2.56-2.55c1.35-.76,3.16-1.57,4.14-2.88l.27-.36a124.84,124.84,0,0,0-3-15.24l-.6-2.17a125.11,125.11,0,0,0-42-63.06c-.24,0-.49.09-.77.12a18.32,18.32,0,0,0-3.57.55,3.24,3.24,0,0,0-1.84,2.07A2.86,2.86,0,0,1,321,80a3.18,3.18,0,0,1-1.87.54c-.5,0-1.49.07-1.22.89s1.62,1.75,2.14,2.45c1.15,1.59-1.29.42-1.91.12a6.32,6.32,0,0,0-2.13-.72c-.42,0-1.36-.23-1.35.27s.56,1.1.83,1.49c.41.59.48.8,0,1s-1,.3-1.45.47a4.71,4.71,0,0,1-2.44.32,4.61,4.61,0,0,1-2.63-2.4A3.3,3.3,0,0,0,307.78,83a3,3,0,0,0-1.53-.57c-1.07,0-1.12,1-.82,2.06s-.63,1.42-.24,2.39a6.87,6.87,0,0,0,2.13,2.36c.68.56,1.84,1.34,1.63,2.09-.31,1.08-1.81.4-2.85-.14-1.41-.74-2.83-1.26-4.25-2a8.23,8.23,0,0,0-3.77-.92c-.67,0-1.06.38-.2,1.14.4.35,1.72.93,1.65,1.62s-1.59.64-2.06.73a16.58,16.58,0,0,1-4.11.52,10.29,10.29,0,0,0-3.21-.11,5.48,5.48,0,0,0-1.28.57,3.15,3.15,0,0,0-1.09,1.58.71.71,0,0,1-.34.38,2,2,0,0,1-.51.21,1.62,1.62,0,0,1-1.6-1.24c-.09-.62-.14-1.3-.73-1.61a2.62,2.62,0,0,0-2.13,0,.82.82,0,0,0-.34.68c0,.5.39,1.81.37,2.75a2.1,2.1,0,0,1-.48,1.42,4.79,4.79,0,0,1-1,.64,2.39,2.39,0,0,0-.95,1.37c-.4,1.08-.71,2.06-1.75,2.4s-1.86,0-3-1.05A26.58,26.58,0,0,1,273,98c-1.07-1.29,1-.8,1.52-.74.81.09,1.58,0,2.37,0a7.73,7.73,0,0,0,1.94-.13c.51-.1,1.4-.3,1.24-1.14-.33-1.84-4.19-3.5-5.31-4q-.81-.39-1.62-.72c-.9-.37-2.42-1-3.4-1.31A5,5,0,0,0,268,89.5c-.88,0-1.43,1.28-2.6-.36a2.66,2.66,0,0,0-2-1.44,8.63,8.63,0,0,0-5,.79,5,5,0,0,0-1.15.88c-.56.58-1.11,1.65-1.56,2a1.69,1.69,0,0,1-1,.28c-2.13,0-2.66,2-2.59,4.56,0,.69.13,1.47.09,2.15a4.07,4.07,0,0,1-.24,1.11c-.19.58-.69,1.9-1.06,3-.23.66-.47,1.33-.7,2-.65,2-1.43,4-2.24,6.06a7.52,7.52,0,0,0-.53,4.77,4.77,4.77,0,0,0,2.37,2.7,3.24,3.24,0,0,0,3.38-.16c1.52-.76,2.3,0,3.28,1.79a5.31,5.31,0,0,0,1.61,2.21,2.9,2.9,0,0,0,2.45.12c.82-.4,1-1.37.78-2.47a3.11,3.11,0,0,1,.31-2.63,2.55,2.55,0,0,0-.11-2.54c-.67-1.42-1.95-3.16-2.28-4.11a4,4,0,0,1-.25-1.69,7.43,7.43,0,0,1,.24-1.4c.21-.71,1.07-2.06,1.66-3.3a7.88,7.88,0,0,0,.73-2.52,4.25,4.25,0,0,1,.28-1.19,1.69,1.69,0,0,1,1.77-.66,1.57,1.57,0,0,1,1.06.76,3.62,3.62,0,0,1,.05,2.74c-.29.93-1.05,1.22-1.41,2.08a7.15,7.15,0,0,0,.06,3.4,7.37,7.37,0,0,0,1,3.38c.91,1.06,2.36.59,3.33.4.44-.09.93-.19,1.44-.25a5.22,5.22,0,0,1,2.15.17c.35.17.81,1.07.49,1.32a2.2,2.2,0,0,1-.68.24c-1,.25-2,.26-2.95.46-.61.14-1.61.2-1.59,1.18,0,.75.8,1.28,1.25,1.69a2,2,0,0,1,.91,1.54.57.57,0,0,1-.63.56,2.84,2.84,0,0,1-1.45-.74c-.29-.23-.68-.71-1-.5-.49.33.05,2.14.15,2.71a5.19,5.19,0,0,1-.07,3c-.85,1.77-3,2-4.65,2.12a17.3,17.3,0,0,1-3.11-.21,5.36,5.36,0,0,1-2-.4c-1.47-.82-1.06-3.44-1.55-4.91-.57-1.72-1.9-.3-2,.78-.22,1.71,1.35,3.48,1,5.1-.24,1.13-1.53,1.32-2.33,1.76a3.58,3.58,0,0,0-1.53,3.32,3.24,3.24,0,0,1-.84,1.81c-.49.75-1.07,1.38-1.59,2.07a2.29,2.29,0,0,1-1.52,1c-.41.06-1-.18-1.3.15s0,.94-.58,1.25-1.48.15-2.16.33c-.45.12-1.08.53-.57,1.06a6.6,6.6,0,0,0,2,.89,4.13,4.13,0,0,1,2,3.08c.41,1.84.15,3.37-1.57,3.75s-3.4.24-5,1.24c-1.41.88-1,3.75-.77,5.36a3.13,3.13,0,0,0,.74,1.79c.33.44.52,1,.95,1.37a2.43,2.43,0,0,0,1.89.29A2.22,2.22,0,0,1,243,157a2.58,2.58,0,0,0,.43.25c.25.09.5-.6,1-.77a3,3,0,0,1,.9-.1,2.86,2.86,0,0,0,.88-.07c.28-.1.37-.41.57-.51a2.9,2.9,0,0,0,1.21-2.27c.07-.45.1-.92.19-1.37a14.15,14.15,0,0,1,.55-1.46,7.69,7.69,0,0,1,.27-1.1c.33-.69.9-.65,1.46-.92a1.92,1.92,0,0,0,1.09-1.85c0-.69-.1-1.45.5-1.81s1.13,0,1.67,0c.93-.09,1.58-.84,2.3-1.37,1.43-1.07,2.75-.73,3.93.78a13.19,13.19,0,0,0,1.71,1.94c.5.42,1.08.63,1.57,1.06s1.35.93,1.94,1.45a3.25,3.25,0,0,1,.65,2.7c0,.36-.24.94.05,1.22s.64-.09.81-.34c.57-.82.33-1.69.19-2.71-.07-.47-.21-1,.16-1.21.15-.08.36,0,.56,0s.14-.95-.57-1.36a2.52,2.52,0,0,0-1.3-.41c-.32,0-1.31-1-1.6-1.27a18.37,18.37,0,0,1-2.14-1.92,4,4,0,0,1-1.18-2c-.15-1.14,1-1.2,1.68-.78s.7,1,1.07,1.54c.83,1.19,2.18,1.27,3.25,1.81.76.38.83,1,1.24,1.8a11.15,11.15,0,0,1,1,1.8c.15.48.13.55.48.88a7,7,0,0,0,1.06.78,4.87,4.87,0,0,1,1,.66c.31.34.19.31.19.71,0,.85.07,1.7.89,2.06s.78-1.18,1-1.83a1.6,1.6,0,0,0,0-1.37c-.21-.42-.7-.64-.94-1-.6-1,.43-1.06.88-1.49s1.13-1.4,2.07-.87c.55.31.49.69.53,1.26a5.19,5.19,0,0,0,.63,1.75,7,7,0,0,0,.68,1.71,4.36,4.36,0,0,0,3.7,1.61c.55-.07,1-.58,1.57-.52.25,0,.43.22.66.29a2.6,2.6,0,0,0,1.24,0c.54-.1,1-.35,1.59-.42.9-.12,1.2.1,1.11,1.16a37.08,37.08,0,0,0-.23,4.85c0,.6.38,2.08.07,2.55s-1.38-.24-1.85-.41a8.28,8.28,0,0,0-4.19-.14,15.66,15.66,0,0,1-2.16.34,3.94,3.94,0,0,1-2.07-.15c-1.15-.68-4.16-2.7-5.05-.77-.6,1.29.09,3.48-1.78,3.37a8.56,8.56,0,0,1-2.55-.91,19.64,19.64,0,0,0-3.86-1,4.56,4.56,0,0,1-2.54-1.13c-1-1,.34-1.51.36-2.62a3,3,0,0,0-1.26-2.54,3.62,3.62,0,0,0-2.3-.1c-.39.07-.75,0-1.15.05a5.88,5.88,0,0,0-1.23.5,12.81,12.81,0,0,1-2.72.64c-.49.07-1,.14-1.45.23-.29.06-1,.07-1.24.3-1.08,1.26-2.45,2.65-4.15,2.75-1.07.06-2-.15-3,.43a9.94,9.94,0,0,0-2.48,2.33c-.61.73-1.17,1.51-1.73,2.29s-.47,2-.3,3.15a3,3,0,0,1-.34,2,6.69,6.69,0,0,1-2.1,2.59,6.42,6.42,0,0,0-2.4,2.7,17.72,17.72,0,0,0-1,3.43,10.2,10.2,0,0,0,1.26,7.09c.37.55-.16,2.47-.21,3.12a6,6,0,0,0,.64,3.44,5.4,5.4,0,0,0,1.56,1.81,29.17,29.17,0,0,1,3.27,3.68A23.1,23.1,0,0,0,242.7,200a8.51,8.51,0,0,0,5.32,1.75,5.15,5.15,0,0,0,2.59-.74,3.72,3.72,0,0,1,1.35-.54,8.1,8.1,0,0,0,2.82-1.11c.45-.33.88-.71,1.29-1a3.22,3.22,0,0,1,3-.85,4.52,4.52,0,0,1,1.33.64,13,13,0,0,0,2.57,1.41,3.49,3.49,0,0,0,1.35.14,3.33,3.33,0,0,1,2.18.67c1.71,1.3,1.15,3.44.51,5.31s.3,3.32,1.21,4.57c.44.59.78,1.22,1.22,1.78a6.77,6.77,0,0,1,1.29,2c.23.73.51,1.39.76,2.07a16.35,16.35,0,0,1,.77,4.33c0,.72,0,1.45,0,2.18,0,.36-.05.72-.08,1.08a12.31,12.31,0,0,1-.33,2,7.07,7.07,0,0,0-.22.88,11.65,11.65,0,0,0-.07,2.21c.06,1.23.11,3.38.19,4.61a9.63,9.63,0,0,0,.33,2.17,54.64,54.64,0,0,0,3.71,8.8c.65,1.35,1.24,2.77,1.87,4.11.32.68.57,1.43.95,2.09a10.65,10.65,0,0,1,.74,2.32c.5,1.61,1.16,2.55,2.51,2.76a5.92,5.92,0,0,0,3.3-.86,14.05,14.05,0,0,0,5.67-5,17.8,17.8,0,0,0,2-4.82,10.43,10.43,0,0,0,.52-2.41c.07-.88.06-1.77.19-2.64.19-1.34.32-2.79.59-4.1.43-2.07.52-3.82,1.73-5.5a25.25,25.25,0,0,1,1.85-2.15c1-1.14,2.88-3,2.68-5.08-.92-9.69-4.63-16.86,3.14-25.06,2-2.85,4.48-7.5,4.84-11.57.18-1.93-1.22-3-2.35-2.34a21.14,21.14,0,0,1-2.08,1c-.65.27-1.34.44-2,.67a3.43,3.43,0,0,1-2-.23,2,2,0,0,1-1.43-1.24c-.35-.71-.34-1.46-.62-2.16a3.45,3.45,0,0,0-1.39-1.44,13.41,13.41,0,0,1-3-3.31A16.64,16.64,0,0,1,291.7,173a7.44,7.44,0,0,0-1.61-2.64,19.66,19.66,0,0,1-1.77-2.62c-.53-.91-2.45-4.06-1.21-4.93,1-.68,2.16,2.25,2.63,3,.92,1.49,1.89,2.84,2.87,4.16.5.69,1,1.36,1.52,2.05.85,1.13,1.85,2.52,2.26,3.09l.72,1.06a8.77,8.77,0,0,1,1.32,2.07c.83,3,2,4.53,3.63,4.2s3.58-2.2,4.89-3.16a46.71,46.71,0,0,0,6.51-5.71,10.8,10.8,0,0,0,1.17-2.24,8,8,0,0,0,.95-2.72,1.68,1.68,0,0,0-.93-1.84c-.47-.22-1,0-1.36-.25s-.67-1.14-1.07-1.58c-.77-.85-1.41-.09-2.08.42s-2.08,1.66-2.87,1.15c-.57-.36-.35-.9-.67-1.4s-.6-.2-1-.27c-1-.19-1.55-1.54-2.12-2.39-.44-.65-1.4-2.11-1.25-3,.25-1.47,2,.24,2.45.68a19.39,19.39,0,0,1,1.87,1.49,3.36,3.36,0,0,0,1.64.93,12,12,0,0,0,1.86.56c.47,0,.92-.2,1.42-.08a1.61,1.61,0,0,1,.78.42,4.72,4.72,0,0,0,3.33,1.13c1.33-.16,2.65-.65,3.88-.91a5.87,5.87,0,0,1,3-.1,5.52,5.52,0,0,1,2.88,2.3c.51.9,1,2.18,2,2.54s1.34-1.94,2-1.48c.33.25.41,1.13.49,1.53a12.66,12.66,0,0,0,.42,1.49c.37,1.13.73,2.27,1.1,3.41a57.36,57.36,0,0,0,2.6,6.94c.51,1.06,1.26,2.66,2.3,2.91.46.1,1.09-.59,1.33-1.06a5.26,5.26,0,0,0,.41-1.58,16.64,16.64,0,0,0,.23-2.1,22.65,22.65,0,0,1,.51-3.87,13.05,13.05,0,0,1,.59-1.66,13.91,13.91,0,0,1,1.55-2.79,10.87,10.87,0,0,0,1.44-1.88c.16-.3.3-.61.45-.92a16.89,16.89,0,0,1,.94-1.74,2,2,0,0,1,.63-.67,4.68,4.68,0,0,1,1-.24c.66-.2.8-.77,1.32-1.16s1.13,0,1.52.38c1.13,1,1.36,2.85,1.7,4.37.16.76.34,1.73,1.08,1.73s1.12-.52,1.76,0,.87,1.8,1.31,2.63,1.17,1.07,1.38,2c.14.6-.1.73-.29,1.23a1.49,1.49,0,0,0,.19,1.31,3,3,0,0,1,.24,1.67,4.82,4.82,0,0,0-.2,1.6.71.71,0,0,0,.58.6A2.15,2.15,0,0,1,357,182.4c.13.37.23.75.32,1a5.88,5.88,0,0,0,.45,1.21c.08.12.16.21.23.32a2.84,2.84,0,0,1,.36,1.32.94.94,0,0,1-.32.84c-.21.13-.51,0-.81-.15s-1.08-.63-1.47-.81a1.7,1.7,0,0,0-.73-.18c-1.29.05.45,2.93.82,3.38s.65.65.95,1a3.56,3.56,0,0,1,.59,1.36,16.48,16.48,0,0,0,1.51,2.86,11.72,11.72,0,0,0,1.75,2.38,5.93,5.93,0,0,0,1.05.85c.11.07,1.15.47,1.15.51.22,3.71,3.05,1.07,4.46,2,1.12.91,2.33.4,3.54.15a5,5,0,0,0,.95-.29c.07-.32.13-.64.2-1a1.5,1.5,0,0,1-1.14-.51A1.53,1.53,0,0,0,369.67,198.05Zm-80.16-53.87a13.21,13.21,0,0,1-3.38-.49c-1.59-.34-3.94.5-5.41,1a4.73,4.73,0,0,1-2.23.31c-1.58-.26-1.07-3.84-.63-5.56a7.27,7.27,0,0,1,1-2.58c1-1.25,3.58-.05,3.24.41s.27.84.41,1.27.63.8,1,.35-.36-2.36.93-3.25l.49-.3c1.36-.74,2.17,0,2.17,1.83a3.86,3.86,0,0,0,.19,1.3c.67,1.8,2.55,1.81,2.59,2s.77.38,1.41,1S291.08,144.09,289.51,144.18Zm13.71,5c-1.55-.55-2.05-3.13-2.22-4.78s-3-2.89-3.46-4.72c-.9-3.24,1.57-6.08,3.63-6.15,1.58-.05.79,2.38.21,4-.21.57.11,1,.71,1.66a18.24,18.24,0,0,0,3.46,2.42c.75.6,0,1.51-.78,1.87s2,2.58,1.81,4.38C306.45,149.27,304.87,149.76,303.22,149.18Zm-51.11.9c.48-.62.3-1.2-1.32-1-.25,0-.6.49-.8,1C249.71,150.84,251.29,151.15,252.11,150.08Zm58.14,70.69a5.57,5.57,0,0,0-.64-2.32,3.58,3.58,0,0,1-.43-.48c-.09-.13-.17-.3-.26-.46a2.18,2.18,0,0,0-.35-.51c-.22-.22-1,.2-1.13,1.06-.06.55,0,1.16-.05,1.57-.07,2.22-1.76,3.43-2.66,5.12-1.27,2.37-.61,4.69-.47,7.05.1,1.54-.46,3.69.21,5,2.19,4.27,4.16-3,4.68-5.24a41,41,0,0,0,1.15-9C310.31,222,310.3,221.37,310.25,220.77ZM264.86,153a1.31,1.31,0,0,0-1-1.61c-.45-.15-.46.35-.42.92C263.48,153,264.55,154.14,264.86,153Zm-5.78-3.95c.46-1.68-1.33-6.3-1.8-4.52a6.16,6.16,0,0,0-.16,1C256.94,147.41,258.61,150.72,259.08,149.05Zm-23.62-21.72c-.25.22-.13.58-.33.79s-.94.14-1.29.26c-1,.36-.09,1.39.14,2a2.29,2.29,0,0,1,.06,1.32c-.09.4-.34.88-.13,1.32.55,1.18,1.79.3,2.49,0a3.45,3.45,0,0,0,1.69-2.42,3.29,3.29,0,0,0-.53-2.2C237.14,127.81,236.09,126.8,235.46,127.33ZM167.3,189.52a7.39,7.39,0,0,1-3.42-.8c-1-.48-2.28-1.05-3.27-.49-.74.42.33,1.18.88,1.5a11.47,11.47,0,0,0,1.28.61c.72.31,1.7.93,2.25,1.16a1.58,1.58,0,0,0,1,.11c1.33-.26,2.61-1.25,4.1-.39.35.21,1,.86,1.37.76,0,0,0,0,.07,0,.42-.21.25-1,0-1.39C170.63,189,168.49,189.48,167.3,189.52Zm73.23-56.69c.07.59-.82.85-.49,1.44s1,.27,1.34.2c1.58-.31,3.69-1,4.63-2.55.36-.6,1.07-2.06.25-2.54-.31-.18-.67-.15-1-.4a4.54,4.54,0,0,1-.86-1.19,15.49,15.49,0,0,0-1.22-2c-.71-.92-2.21-1.29-2.15-2.81,0-.5.59-1,.36-1.53-.13-.3-.45-.33-.68-.44s-1.27-.89-1.23-1.32-2.42-.28-2.11.54c.47,1.21-1.51,1.82-.5,2.52l.12.1a14,14,0,0,0,.07,1.63c.15.87,1.43,1.1,1.58,1.84s1.3,0,1.76.68.6,2.07-.06,2.42-.22,1.76-.65,2.15c-.28.25-.57.49-.24.95C239.65,132.76,240.44,132.12,240.53,132.83Zm-85.12-11.66c-.54,1.68-.54,3.19.22,3.46s2.56-1,3.86-1.54c1.86-.72.22-1.45-1.18-2.61C157.39,119.72,155.94,119.48,155.41,121.17Zm62.77,115.7a16.54,16.54,0,0,1-1.24-4.8c-.09-3.06,2.4-5.25,2.4-8.46,0-2-2.26-3.68-3.76-4.19s-3.41-2.87-5-2.67l-.53.07c-1.62.2-4.26-1.67-6-2.11a9.78,9.78,0,0,0-1.16-.21c-1.69-.23-3.8-2-4.85-3.75s-2.12-3.16-3.52-3.75c-1.89-.79-4.12.93-5.85-.82a8.19,8.19,0,0,0-2.51-1.87,8.4,8.4,0,0,1-2.66-1.66c-1.13-1.15-1.86-.11-3.05-.5-.69-.22-1-.54-1.73-.46-1,.1-2,.33-3,.33-.81,0-1.14-.39-1.85-.81-1.6-1-3.86.12-4.65,1.49-.39.67-.45,1.65-.84,2.27-.79,1.24-2.94.53-4.24,0a7.5,7.5,0,0,1-2.67-1.84c-.88-1-1.5-1.22-1.6-2.61-.08-1,0-2.31-.84-3.11a3.12,3.12,0,0,0-2.44-.59c-.64,0-1.44.39-2.1.11a2.36,2.36,0,0,1-1.22-2.05c.09-.54.62-.92.84-1.38a1.79,1.79,0,0,0,.24-.81c0-.15-.22-.74-.2-.79.47-1.16.15-1.77-.49-2a2.72,2.72,0,0,0-3,2.29c-.12,1.42-2.26,2.59-3.76,2.11-2.95-.94-4.86-6.07-4.35-9.74.23-1.67,1.75-4.11,3.19-4.46,1.16-.28,2.47.07,3.84,0,.57,0,.51-.36.46-.75-.08-.64,1.18-.75,2.09-.89a4.84,4.84,0,0,1,4.12,1.33,11.49,11.49,0,0,1,1.23,2.13c.78,1.56,3.07,2.27,2.45.56-.38-1.07-1.08-2.4-1.54-3.62-.63-1.7.45-4.14,1.47-5.17a20.48,20.48,0,0,0,1.83-1.9,3.83,3.83,0,0,0,1-2.17c0-.95-.76-1.76-.79-2.81a5.09,5.09,0,0,1,.31-2.11,6.33,6.33,0,0,1,2.06-2.8c.85-.62,2.44-.62,2.82-1.93s.29-2.08,1.21-3.19a9.48,9.48,0,0,1,2-1.71c1.17-.79.74,1.48,2.22,1.14a12.49,12.49,0,0,0,4-2.53c1.3-1.12,1.74-2.83,1.24-3.32s-1.47,2.48-2.95,2.31a1.85,1.85,0,0,1-.45-.11c-1.39-.51-1.38-2.8-1.63-2.73s-.26-.31.06-.51.56-2.67-.84-1.94a7.63,7.63,0,0,0-.75.44c-1.35.88-1.63-.25-.28-1.15,2.14-1.43,4.79-2,7.26-2.84,1.49-.54,2.1.21,1.37,2s-1.09,2.92,0,3c1.51.15,3.24-.71,3.32-.13.05.38.11.73.58.31.7-.64,1.63.56,2.19-.47a1.64,1.64,0,0,0-.28-1.62c-.48-.75-1.12-2.14-2-2.09s-1.3-2.19-1-4.1l.09-.59c.25-1.91-2.14-3.18-3.35-4.06-3.54-2.61-2.32-2.89-4.2-6.82-.7-1.46-2-1.08-3.12.35-.6.76-1.22,1.33-1.73,1.31-1.32-.05-.76-4.07-1.66-4.4-.49-.17-1.13-.19-1.44-1a2.49,2.49,0,0,0-3.26-1.34c-1.25.36-2.45,2.82-2.29,4.21s-1,3.66-.45,4.61,1.32,3.4.38,5c-.57.94-1.41,1.71-1.88,2.66-.83,1.67.49,4-.05,5a1,1,0,0,1-1.35.57,4,4,0,0,1-1.9-2.36c-.41-2.19.38-3.57-1.54-3.89a19.25,19.25,0,0,1-7.11-2.59c-1-.65-.93-1.63-1.24-2.87s-1.43-1.5-.08-3.37c.85-1.18,2.17-2.08,2.66-3.77s-1-1.63-.1-3,3.09-1.06,4.09-1.6a2.24,2.24,0,0,0,1.22-1.24c.41-1.17-.47-1.14-.69-1.69-.07-.17.26-.31.59-.41a3.35,3.35,0,0,0,1.3-.49,2.42,2.42,0,0,0,.58-.74,5.25,5.25,0,0,1,.33-.88,1.71,1.71,0,0,1,.75-.54,4.18,4.18,0,0,0,1.71-.82,6.19,6.19,0,0,0,2.11-2.46,5,5,0,0,0,.39-2.17c-.13-.38-.62-.29-.6-.91,0-2,2.21-2.25,2.92-2.46,1.07-.32,2.33-.74,2.07,1.3-.11.91-.24,3.07.86,1.79.62-.73.85-1.07,1.29-.5a1.89,1.89,0,0,1,.57,1.75,2.42,2.42,0,0,1-1.05,1.65c-.74.61-1.47,3.56-2.71,3.89l-.61.16c-1.23.38-1.08,3.31.14,2.64s2.67,0,3.56,1c1.26,1.35,3.13,2.77,4,2.68,1.32-.12.35-2.92,1-3.22a3.41,3.41,0,0,1,1.15-.39c.21,0,.26-1.72.24-1.9a2.58,2.58,0,0,0-.56-1.34c-.59-.66-1.43-.66-1.77-1.77s.84-2.47,1.54-2.08c.33.18.53.68.75,1.16.34.78,1,1.17,1.34,1a1.69,1.69,0,0,0,.52-.48c.39-.53.35-1.15.65-1.7.49-.89,1.25-.71,1.73-1.55a1.08,1.08,0,0,0-.39-1.64c-1-.68-2.17-1-3.16-1.64-.2-.13-.41-.21-.57-.34a2.82,2.82,0,0,1-.32-2,6.62,6.62,0,0,0,.1-1.29,2,2,0,0,0-.78-1.29,6.06,6.06,0,0,0-1.24-1c-.72-.44-2.4-.4-3-1.34s-1-2.17-1.92-2c-.1,0-.43.36-.57.43a.93.93,0,0,1-.59.09c-.37-.07-.61-.39-.94-.53a2.18,2.18,0,0,0-2.3.36,8.13,8.13,0,0,1-1,.64,9.87,9.87,0,0,1-1.86.5,8.68,8.68,0,0,0-2.53,1.92,6.86,6.86,0,0,0-1.31,1.74c-.51,1-.87,2.66-.22,2.78a16.86,16.86,0,0,0,2.57-.29c.7,0,2.42-.2,1.83,1.57-.44,1.34-1.89,1.06-2,2.63A3.54,3.54,0,0,1,158,113a6.12,6.12,0,0,1-1,1.45,8.62,8.62,0,0,1-1,1c-.51.39-1.22.28-1.16-.48s.61-1.12.73-1.76a.71.71,0,0,0-.51-.91,2,2,0,0,0-.55-.12,1.57,1.57,0,0,1-1-.63,3.64,3.64,0,0,1-.32-.66c-.15-.41-.4-.79-.56-1.23a3.48,3.48,0,0,1,.49-2.61c.2-.23.44-.44.71-.76a14.45,14.45,0,0,0,1.43-2.11c.9-1.59,1.08-3.08,0-2.9s-2.8,1.64-3.5,3.54a19.66,19.66,0,0,1-1.18,3.28c-.55,1-1.33,1.69-1.84,2.65a19.11,19.11,0,0,0-.75,2.63c-.32.88-.51.71-1,1-1.1.78-.9,2.75-2,3.72a2.67,2.67,0,0,1-1.16.51,3.94,3.94,0,0,1-2,.16c-.18,0-.44-.09-.32-.51.18-.61.73-.79,1.06-1.06a5.81,5.81,0,0,0,1.81-4c-.09-.67-.71-.6-1.07-.88a2.69,2.69,0,0,1-.67-2.63q-2.53,4.31-4.7,8.77a.57.57,0,0,1,.55.35c.14.32,0,.72-.22,1.25a7.32,7.32,0,0,0-.37,1c-.17.56-.91,2.64-1.56,2.25a3.19,3.19,0,0,1-.46-.38,122.8,122.8,0,0,0-5.6,15.44,125.93,125.93,0,0,0-4.68,42.16,1.05,1.05,0,0,1,1,.22c1.18.92,2,3.46,3.14,4.37,2,1.53,4.25,3.45,5.44,5.74.79,1.5,1.91,3.72,3.31,4.5,2.75,1.51,6,2.63,8.66,2.26s5.84,4.17,8.34,2.64c.3-.18,1.81,1.94,2,2.23a9.49,9.49,0,0,0,3,2.39,19.35,19.35,0,0,0,3.69,1.43c2.31.72,5.11,1.91,4.78,5.37a48.46,48.46,0,0,1-1.46,6.14c-.48,2.15-.75,4.29.45,6.3s3,3.32,4.18,5.23.95,4.49,2.2,6.59c1.57,2.63,3.67,3,6.38,4a9.13,9.13,0,0,1,5.05,3.86,79.75,79.75,0,0,1,7.22,13.52c2.51,5.85,4.61,12.1,8.35,17.26a26.26,26.26,0,0,0,6.47,6.62c1.68,1.13,3.29,1.12,3.14-1.29-.08-1.48-1.3-2.66-1.91-4s-.1-2.47-.18-3.86c-.06-1.16-1.15-2.86-.39-3.83s2-.38,2.39-1.64c.5-1.58-1.21-2.23-1.53-3.44s1.75-1.31,2.35-2.43c.38-.71.14-1.6.39-2.34.21-.59.52-.7.86-1.14a6.42,6.42,0,0,0,1-2.94c.25-1.67-1.44-3.52-.87-5.12a7.49,7.49,0,0,1,3.17-3.05c.93-.51,1.58-.61,2.12-1.89a8.3,8.3,0,0,0,.15-4.71C218.07,238.66,218.41,237.59,218.18,236.87ZM147.1,155c1.2-1.23,3.32-4,4.54-3.36a4.6,4.6,0,0,1,1.47,1.68c.82,1.3,2.83,1.67,4,2.18s-.38,1.69-.51,2.82-.91,1.59-.9,1c0-.38,0-.67-.56-.43-.74.35-.58-.23-.4-.86.25-.87-1.78-1.51-2.23.27-.11.45-.18,1-.25,1.46-.24,1.81-2,1.85-1.7.05q0-.34.12-.69c.35-1.79-.3-3.87-1.72-3.64C147.34,155.7,145.81,156.32,147.1,155Z" style="fill:#fff;opacity:0.5"></path><path d="M282.65,62.65c-79.44-23-94.34,31.12-52.27,65.31s114.25,45.52,124,23S341.7,79.78,282.65,62.65Z" style="fill:#fff;opacity:0.1"></path><path d="M194.29,250.4C142.47,207.77,139.56,133,165.82,81.14A124.76,124.76,0,0,0,328.65,270.06c3.25-2.64,6.33-5.42,9.24-8.3C297.2,279.82,239.92,287.94,194.29,250.4Z" style="fill:#1A1CEB;opacity:0.2"></path></g><path d="M358.46,234.78a5,5,0,0,1-.73-.33,7.52,7.52,0,0,0-5.36-.7c-4.72,1-9.86,6.42-11.71,12.29-1.06,3.39-.89,6.19.47,7.69a3.47,3.47,0,0,0,2.68,1.12l.57,0c.67-.78,1.33-1.55,2-2.34l-.69.2a2.8,2.8,0,0,1-2.84-.43c-1-1.06-1.12-3.36-.23-6.16,1.59-5,5.85-9.58,9.69-10.43a5.68,5.68,0,0,1,4.07.53,6.4,6.4,0,0,0,1.09.48l1.09-1.86Z" style="fill:#fff"></path><path d="M370.12,206.46l-4.68.66-3.11.43c-11.69,1.63-19,2.45-21.33.11-1.74-1.72-.36-4.94,1.78-7.36a10.19,10.19,0,0,0,2.87-5.82,6,6,0,0,0-1.78-4.73c-2.11-2.22-5.78-3.48-9.77-3.35-6.59.21-12.18,4.34-12.47,9.21a8.76,8.76,0,0,0,2,5.86c1.56,2.06,2.54,5.28.18,7.58-3.12,3-11.07,3.57-22,4l-2.5.1-6.86.26c0-3.82-.21-7.39-.36-10.39L292,200.6c-.51-9.51-.91-17,1.81-19.56,2.31-2.16,5.89-.92,8.25.8a10.34,10.34,0,0,0,6.32,2.2c5.29-.08,9.6-5.29,9.58-11.61s-4.32-11.53-9.62-11.63A10.29,10.29,0,0,0,302,163c-2.36,1.71-5.93,2.95-8.25.78-2.52-2.35-2-9.07-1.37-17.59l.13-1.83c.28-3.72.56-8.14.62-12.8,5.55.31,10.44,1,15.36,1.73l.64.1c3.29.49,6.13.92,8.52,1.09,4,.3,6.35-.17,7.71-1.57,2.56-2.65.65-6.91-2-10a10.57,10.57,0,0,1-2.63-5.11,4.42,4.42,0,0,1,1.24-3.94c1.5-1.51,4.06-2.11,7-1.66,5.25.8,10.32,4.64,11.09,8.39a5.41,5.41,0,0,1-1,4.29,7.07,7.07,0,0,0,.76,9.49c2.95,2.77,8,3,15.75,3.3l1.42.06c3.58.15,7.9.37,12.75.91h.15c-.16-.56-.31-1.13-.48-1.69-4.83-.54-9.1-.78-12.66-.94l-1.4-.06c-7-.31-12-.53-14.34-2.74s-1.72-5.29-.37-7.19a6.81,6.81,0,0,0,1.18-5.43c-1-4.63-6.78-9.19-13-10.16-3.41-.53-6.42.21-8.26,2a6,6,0,0,0-1.67,5.3,12.53,12.53,0,0,0,3.09,6.14c2,2.38,3.72,5.83,1.9,7.71s-7.31,1.11-14.85,0l-.49-.07c-5-.76-9.87-1.46-15.52-1.78,0-.62-.07-1.22-.1-1.83-.05-.88-.1-1.76-.14-2.61-.06-1.27-.11-2.63-.15-4-.3-9.08-.67-20.38-6-26.6-2.56-3-6.86-2.21-9.62,0a6.64,6.64,0,0,1-4.54,1.68c-3.79-.2-7.08-4.93-7.35-10.55-.16-3.51.84-6.77,2.62-8.51A4.13,4.13,0,0,1,271,76a8,8,0,0,1,4.6,2.32c1.78,1.59,4.77,3.15,7.1,2.88A3,3,0,0,0,285,79.9c4.38-6.36,1.46-18.07-.74-26.7l-1.69-.47.05.2c2.08,8.31,4.92,19.7,1,25.68a1.7,1.7,0,0,1-1.26.73c-1.51.2-4-.84-5.73-2.42A9.67,9.67,0,0,0,271,74.13a5.59,5.59,0,0,0-4.34,1.7c-2.18,2.11-3.36,5.83-3.18,10,.29,6.6,4.37,12.17,9.1,12.41a8.23,8.23,0,0,0,5.66-2c1.74-1.42,5.25-2.75,7.29-.32,4.79,5.71,5.1,16.44,5.34,25.07,0,1.52.08,3,.15,4.32,0,.89.09,1.81.14,2.74l.09,1.63-6.23-.34-3.07-.17c-13-.73-21.76-.93-25.09,2.67-2.92,3.15-1.36,7.72.85,10.67a8.91,8.91,0,0,1,2,5.25,6.3,6.3,0,0,1-2,4.51,11.67,11.67,0,0,1-8.18,3.07h0a11.64,11.64,0,0,1-8.17-3.07,6.3,6.3,0,0,1-2-4.5,8.87,8.87,0,0,1,2-5.25c2.21-3,3.77-7.53.86-10.67-3.37-3.63-10.77-3.44-22.56-2.81l-2.58.13q-3.16.18-6.71.35v-.14c.11-1.52.21-3,.33-4.39.15-1.62.35-3.33.56-5.14,1-8.1,2-17.28-1.54-22.62a2.92,2.92,0,0,0-2.11-1.25c-2.35-.34-5.68,1.21-7.75,2.93a10.14,10.14,0,0,1-5.07,2.5,4.13,4.13,0,0,1-3.65-1.29c-1.45-1.56-2-4.3-1.36-7.33,1-5.32,5-10.33,8.6-10.94a5,5,0,0,1,4,1.17c2.18,1.78,6.48,2.82,9.17-.45,5.58-6.77,6.68-18.56,7.64-29l.13-1.33-1.62.41-.11,1.11c-1,10-2,21.24-7.17,27.59a3.8,3.8,0,0,1-2.65,1.44,6.07,6.07,0,0,1-4.2-1.33A6.23,6.23,0,0,0,198.59,80c-4.48.77-9.16,6.49-10.41,12.76-.72,3.56-.1,6.72,1.69,8.66a5.66,5.66,0,0,0,5,1.74,11.94,11.94,0,0,0,6.1-2.94c2.49-2,5.77-3.57,7.53-1.71,2.53,2.67,1.86,10.69.83,22.83l-.29,3.58c-.13,1.49-.25,3-.37,4.64-3.68.19-7.1.45-10.25.7l-2.29.18c-10.62.86-18.3,1.47-20.53-.86-1.79-1.86-.07-5.31,2-7.69a12.67,12.67,0,0,0,3.11-6.15,5.92,5.92,0,0,0-1.62-5.29c-1.82-1.8-4.8-2.52-8.18-2-6.16,1-12,5.6-13,10.22a6.7,6.7,0,0,0,1.12,5.4c1.32,1.88,2,4.9-.45,7.18-3,2.8-9.94,3.6-19.54,4.69l-2.52.29c-1.81.21-3.78.45-5.83.72-.16.52-.34,1.05-.49,1.58l0,.11.16,0c2.14-.27,4.19-.51,6.07-.72l2.59-.29,4.92-.55c8.09-1,13-2,15.86-4.67a7.08,7.08,0,0,0,.84-9.47,5.35,5.35,0,0,1-.92-4.27c.8-3.74,5.88-7.6,11.1-8.44,2.92-.47,5.44.11,6.93,1.59a4.38,4.38,0,0,1,1.2,3.93,10.76,10.76,0,0,1-2.66,5.12c-2.65,3.11-4.57,7.38-2,10,2.77,2.88,10.91,2.24,22.16,1.35l2.06-.16c2.91-.22,6.37-.48,10.07-.67-.14,1.12-.22,1.81-.37,3-.14,1-.31,2-.49,3.15-1.38,8.75-3.28,20.74,1.86,26.53,2.65,3,7.84,1.31,10.69-.83a8.92,8.92,0,0,1,5.26-2h0a6.25,6.25,0,0,1,4.44,2,12.46,12.46,0,0,1,0,16.39,6.3,6.3,0,0,1-4.47,2h0a8.86,8.86,0,0,1-5.25-2c-2.81-2.11-8.16-3.82-10.7-.8-5.8,6.9-3.83,20.85-2.4,31,.18,1.29.36,2.53.51,3.71-4.37-.18-8.46-.23-12.09-.26l-2.06,0c-9.38-.11-16.23-.39-18.92-3-2.37-2.3-1.41-5.5.14-7.54a8.65,8.65,0,0,0,1.92-5.83c-.32-4.85-5.93-9-12.51-9.22-4-.14-7.66,1.1-9.75,3.31a5.88,5.88,0,0,0-1.73,4.68,10.21,10.21,0,0,0,2.9,5.8c2.15,2.42,3.56,5.62,1.84,7.32-2.17,2.14-9.32,1-17.61-.4l-.72-.11c-2.69-.45-5.74-.95-8.94-1.43l-.16,0c.16.57.32,1.13.49,1.7,3.08.48,6,1,8.64,1.41l.69.12c3.3.55,6.24,1,8.81,1.34,5.64.66,8.6.28,10.2-1.31,2.46-2.44.84-6.6-1.87-9.65a8.45,8.45,0,0,1-2.42-4.76,4.41,4.41,0,0,1,1.32-3.51c1.74-1.84,4.86-2.86,8.34-2.73,5.6.21,10.37,3.55,10.63,7.45a7,7,0,0,1-1.6,4.71c-2,2.57-3.09,6.7.16,9.85s9.86,3.5,20.29,3.64l2,0c3.9.05,8.32.1,13.05.32.21,1.78.51,3.82.83,6,1.43,9.56,3.2,21.46-.84,27.15a1.85,1.85,0,0,1-1.33.73c-1.77.23-4.44-1.08-6.16-2.49a11.92,11.92,0,0,0-6.09-2.95,5.62,5.62,0,0,0-5,1.73c-1.79,1.94-2.41,5.1-1.69,8.66,1.27,6.27,5.94,12,10.42,12.77a6.2,6.2,0,0,0,5.12-1.44,6.12,6.12,0,0,1,4.33-1.3,3.51,3.51,0,0,1,2.49,1.41c3.9,5.22,4.87,13.38,5.81,21.27.24,2,.46,3.85.73,5.68l.15,1,1.64.43-.2-1.38c-.25-1.77-.46-3.7-.67-5.74-.83-8-1.78-17.07-6.33-22.44-2.89-3.41-7.15-2.09-9.15-.45a4.87,4.87,0,0,1-4,1.16c-3.61-.62-7.55-5.63-8.61-10.95-.6-3-.1-5.77,1.36-7.33a4.08,4.08,0,0,1,3.63-1.27,10,10,0,0,1,5.06,2.5c2,1.69,5.19,3.26,7.57,3a3.13,3.13,0,0,0,2.27-1.27c4.5-6.15,2.7-18.56,1.25-28.53-.3-2.09-.58-4.06-.78-5.8l6.41.34,2,.11c2.57.14,5.3.28,7.82.35,7.85.21,13.62-.24,16.25-3.07,2.92-3.15,1.37-7.72-.85-10.67a8.91,8.91,0,0,1-2-5.25,6.3,6.3,0,0,1,2-4.51,12.45,12.45,0,0,1,16.37,0,6.3,6.3,0,0,1,2,4.5,8.92,8.92,0,0,1-2,5.26c-2.22,3-3.78,7.52-.86,10.67,3.23,3.47,10.74,3.32,22.72,2.64l2.29-.13c2.51-.14,5.22-.3,8.06-.44-.38,3-.79,5.8-1.13,8.16l-.27,1.78c-1.71,11.47-2.95,19.76,0,22.83,2.53,2.67,6.75.88,9.85-1.68a10.09,10.09,0,0,1,5.07-2.48,4.22,4.22,0,0,1,3.69,1.32c1.47,1.57,2,4.33,1.43,7.37-1,5.33-4.93,10.32-8.56,10.91a5,5,0,0,1-4.07-1.2c-2.47-2-6.28-2.67-9.2.38s-3.35,9.21-4.13,17.94c-.09.94-.17,1.91-.27,2.91-.23,2.45-.59,6.17-1.13,10.19l0,.15c.55-.14,1.1-.3,1.64-.45.42-3,.79-6.22,1.16-10q.14-1.48.27-2.88c.74-8,1.33-14.24,3.58-16.59s5.14-1.53,6.91-.09a6.34,6.34,0,0,0,5.17,1.49c4.5-.74,9.16-6.46,10.37-12.75.69-3.56.05-6.73-1.77-8.69a5.73,5.73,0,0,0-5-1.78,11.94,11.94,0,0,0-6.11,2.92c-2.48,2-5.77,3.56-7.55,1.68-2.36-2.47-1.17-10.3.47-21.13l.3-2c.34-2.26.78-5.25,1.18-8.37,2.4-.11,4.71-.2,6.87-.28l2.52-.1c2.47-.09,5.1-.21,7.54-.37,7.33-.49,12.82-1.4,15.74-4.24,3.24-3.15,2.08-7.3.1-9.9a7.15,7.15,0,0,1-1.63-4.74c.24-3.91,5-7.24,10.6-7.43,3.45-.12,6.59.92,8.36,2.77a4.55,4.55,0,0,1,1.36,3.54,8.48,8.48,0,0,1-2.4,4.79c-2.69,3-4.29,7.22-1.81,9.68,3,2.92,10.54,2,22.69.27l2.68-.38,4.83-.7c.17-.56.32-1.13.48-1.7Zm-80-5.66.13,2.36c.17,3.15.33,6.57.38,10.3-2.87.14-5.61.29-8.14.44l-2.35.13c-11.5.63-18.67.81-21.36-2.08-2.13-2.3-.8-5.89,1-8.27a10.74,10.74,0,0,0,2.4-6.37,8,8,0,0,0-2.5-5.8,14.23,14.23,0,0,0-19,0,8,8,0,0,0-2.5,5.8,10.74,10.74,0,0,0,2.4,6.37c1.78,2.38,3.11,6,1,8.27-2.76,3-11.53,2.75-22.72,2.16l-2.54-.13c-2.22-.12-4.5-.25-6.88-.36-.19-1.7-.43-3.54-.7-5.49-1.31-9.77-2.94-21.93,2.08-28.06,1.69-2.06,5.94-.72,8.24,1a10.71,10.71,0,0,0,6.37,2.39h0a8.12,8.12,0,0,0,5.75-2.51,14.31,14.31,0,0,0,0-19.05,8.19,8.19,0,0,0-5.79-2.5A10.74,10.74,0,0,0,219,161.8a9.83,9.83,0,0,1-6.41,2,2.64,2.64,0,0,1-1.81-1c-4.24-5.71-2.61-16.73-1.3-25.58.14-.93.27-1.83.39-2.71.16-1.31.25-2,.4-3.23h.07v0L217,131l2.75-.15c11.35-.58,18.44-.72,21.2,2.25,2.13,2.3.8,5.89-1,8.27a10.83,10.83,0,0,0-2.4,6.37,8,8,0,0,0,2.5,5.81,13.31,13.31,0,0,0,9.49,3.63h0a13.35,13.35,0,0,0,9.5-3.63,8.09,8.09,0,0,0,2.5-5.82,10.78,10.78,0,0,0-2.4-6.37c-1.78-2.37-3.11-6-1-8.26,2.79-3,12-2.76,23.74-2.12l2.71.15c2.15.12,4.36.25,6.63.36-.06,4.62-.35,9-.62,12.69l-.14,1.81c-.71,9.41-1.23,16.2,2,19.16s7.71,1.5,10.64-.64a8.36,8.36,0,0,1,5.2-1.84c4.18.07,7.73,4.56,7.74,9.81s-3.52,9.73-7.71,9.79a8.37,8.37,0,0,1-5.2-1.85c-2.95-2.14-7.5-3.6-10.65-.67C289.13,182.83,289.54,190.37,290.1,200.8Z" style="fill:#fff"></path><path d="M131.43,181.86a13,13,0,0,0,6.48,2.19h.29a8.39,8.39,0,0,0,5.89-2.42,11.58,11.58,0,0,0,0-15.95,8.45,8.45,0,0,0-6.2-2.43,12.78,12.78,0,0,0-6.46,2.17,10.29,10.29,0,0,1-6,1.77h0c0,.63-.05,1.26-.07,1.89a12.57,12.57,0,0,0,7.24-2.11,10.46,10.46,0,0,1,5.28-1.79,6.39,6.39,0,0,1,4.7,1.88,9.71,9.71,0,0,1,0,13.19,6.31,6.31,0,0,1-4.69,1.87,10.54,10.54,0,0,1-5.28-1.81,12.82,12.82,0,0,0-7.27-2.14c0,.63.07,1.26.1,1.89h0A10.41,10.41,0,0,1,131.43,181.86Z" style="fill:#fff"></path></g></g></svg>